<svg width="64" height="64" viewBox="0 0 64 64" fill="none" xmlns="http://www.w3.org/2000/svg">
<g clip-path="url(#clip0_124_333)">
<path d="M11.896 11.2178C13.876 12.8318 14.626 12.7178 18.364 12.4678L53.604 10.3538C54.354 10.3538 53.73 9.60379 53.4781 9.47779L47.6241 5.24779C46.5101 4.37179 45.0101 3.38379 42.1441 3.62179L8.03005 6.12179C6.78005 6.23579 6.53005 6.86179 7.03005 7.36179L11.896 11.2178ZM14.01 19.4378V56.5098C14.01 58.4998 15 59.2498 17.24 59.1238L55.9701 56.8838C58.2101 56.7578 58.4701 55.3938 58.4701 53.7698V16.9478C58.4701 15.3218 57.8441 14.4578 56.4701 14.5838L16.002 16.9478C14.502 17.0738 14.012 17.8118 14.012 19.4278L14.01 19.4378ZM52.2401 21.4158C52.4901 22.5418 52.24 23.6558 51.114 23.7918L49.25 24.1678V51.5318C47.6241 52.4078 46.1361 52.9078 44.896 52.9078C42.896 52.9078 42.396 52.2818 40.906 50.4178L28.698 31.2518V49.7938L32.562 50.6698C32.562 50.6698 32.562 52.9098 29.448 52.9098L20.854 53.4098C20.604 52.9098 20.854 51.6598 21.73 51.4198L23.97 50.7938V26.2838L20.8561 26.0338C20.6061 24.9078 21.232 23.2938 22.97 23.1698L32.188 22.5438L44.896 41.9598V24.7818L41.656 24.4058C41.406 23.0418 42.396 22.0418 43.646 21.9258L52.2401 21.4158ZM5.16605 2.75979L40.656 0.14579C45.01 -0.23021 46.1361 0.0197904 48.8741 2.00979L60.208 9.97779C62.072 11.3418 62.6981 11.7178 62.6981 13.2078V56.8858C62.6981 59.6258 61.698 61.2398 58.218 61.4898L16.988 63.9798C14.384 64.1058 13.134 63.7298 11.758 61.9898L3.41405 51.1558C1.92405 49.1658 1.30005 47.6758 1.30005 45.9378V7.11579C1.30005 4.87579 2.30005 3.01179 5.16405 2.76179L5.16605 2.75979Z" fill="black"/>
</g>
<defs>
<clipPath id="clip0_124_333">
<rect width="64" height="64" fill="white"/>
</clipPath>
</defs>
</svg>
