<svg width="48" height="48" viewBox="0 0 48 48" fill="none" xmlns="http://www.w3.org/2000/svg">
<path fill-rule="evenodd" clip-rule="evenodd" d="M24 2C11.85 2 2 11.85 2 24C2 36.15 11.85 46 24 46C36.15 46 46 36.15 46 24C46 11.85 36.15 2 24 2ZM21.784 17.87C22.244 16.964 22.584 16.534 22.866 16.31C23.078 16.142 23.366 16 24 16C25.25 16 26 16.94 26 17.956C26 18.512 25.892 18.788 25.596 19.14C25.182 19.632 24.416 20.23 22.9 21.232L22 21.824V26C22 26.5304 22.2107 27.0391 22.5858 27.4142C22.9609 27.7893 23.4696 28 24 28C24.5304 28 25.0391 27.7893 25.4142 27.4142C25.7893 27.0391 26 26.5304 26 26V23.966C27.084 23.218 27.994 22.502 28.654 21.718C29.608 20.586 30 19.378 30 17.956C30 15.016 27.734 12 24 12C22.632 12 21.422 12.352 20.384 13.174C19.416 13.94 18.756 14.994 18.216 16.064C18.0905 16.2989 18.0132 16.5566 17.9887 16.8218C17.9641 17.087 17.9927 17.3544 18.0729 17.6084C18.1531 17.8624 18.2832 18.0978 18.4557 18.3008C18.6281 18.5039 18.8393 18.6704 19.0769 18.7907C19.3146 18.911 19.5738 18.9826 19.8395 19.0013C20.1052 19.02 20.3719 18.9855 20.6241 18.8997C20.8763 18.814 21.1088 18.6787 21.3079 18.5019C21.5071 18.3251 21.669 18.1102 21.784 17.87ZM26 33C26 32.4696 25.7893 31.9609 25.4142 31.5858C25.0391 31.2107 24.5304 31 24 31C23.4696 31 22.9609 31.2107 22.5858 31.5858C22.2107 31.9609 22 32.4696 22 33V34C22 34.5304 22.2107 35.0391 22.5858 35.4142C22.9609 35.7893 23.4696 36 24 36C24.5304 36 25.0391 35.7893 25.4142 35.4142C25.7893 35.0391 26 34.5304 26 34V33Z" fill="#FF94A7"/>
</svg>
